<svg xmlns="http://www.w3.org/2000/svg" xmlns:xlink="http://www.w3.org/1999/xlink" id="processonSvg1000" viewBox="76.0 50.0 1109.0000000000007 698.0" width="1109.0000000000007" height="698.0"><defs id="ProcessOnDefs1001"><marker id="ProcessOnMarker1043" markerUnits="userSpaceOnUse" orient="auto" markerWidth="16.23606797749979" markerHeight="10.550836550532098" viewBox="-1.0 -1.3763819204711736 16.23606797749979 10.550836550532098" refX="-1.0" refY="3.8990363547948754"><path id="ProcessOnPath1044" d="M12.0 3.8990363547948754L0.0 7.798072709589751V0.0Z" stroke="#007fff" stroke-width="2.0" fill="#007fff" transform="matrix(1.0,0.0,0.0,1.0,0.0,0.0)"/></marker><marker id="ProcessOnMarker1054" markerUnits="userSpaceOnUse" orient="auto" markerWidth="16.23606797749979" markerHeight="10.550836550532098" viewBox="-1.0 -1.3763819204711736 16.23606797749979 10.550836550532098" refX="-1.0" refY="3.8990363547948754"><path id="ProcessOnPath1055" d="M12.0 3.8990363547948754L0.0 7.798072709589751V0.0Z" stroke="#007fff" stroke-width="2.0" fill="#007fff" transform="matrix(1.0,0.0,0.0,1.0,0.0,0.0)"/></marker><marker id="ProcessOnMarker1061" markerUnits="userSpaceOnUse" orient="auto" markerWidth="16.23606797749979" markerHeight="10.550836550532098" viewBox="-1.0 -1.3763819204711736 16.23606797749979 10.550836550532098" refX="-1.0" refY="3.8990363547948754"><path id="ProcessOnPath1062" d="M12.0 3.8990363547948754L0.0 7.798072709589751V0.0Z" stroke="#5c5c5c" stroke-width="2.0" fill="#5c5c5c" transform="matrix(1.0,0.0,0.0,1.0,0.0,0.0)"/></marker><marker id="ProcessOnMarker1072" markerUnits="userSpaceOnUse" orient="auto" markerWidth="16.23606797749979" markerHeight="10.550836550532098" viewBox="-1.0 -1.3763819204711736 16.23606797749979 10.550836550532098" refX="-1.0" refY="3.8990363547948754"><path id="ProcessOnPath1073" d="M12.0 3.8990363547948754L0.0 7.798072709589751V0.0Z" stroke="#007fff" stroke-width="2.0" fill="#007fff" transform="matrix(1.0,0.0,0.0,1.0,0.0,0.0)"/></marker><marker id="ProcessOnMarker1083" markerUnits="userSpaceOnUse" orient="auto" markerWidth="16.23606797749979" markerHeight="10.550836550532098" viewBox="-1.0 -1.3763819204711736 16.23606797749979 10.550836550532098" refX="-1.0" refY="3.8990363547948754"><path id="ProcessOnPath1084" d="M12.0 3.8990363547948754L0.0 7.798072709589751V0.0Z" stroke="#ff0000" stroke-width="2.0" fill="#ff0000" transform="matrix(1.0,0.0,0.0,1.0,0.0,0.0)"/></marker><marker id="ProcessOnMarker1094" markerUnits="userSpaceOnUse" orient="auto" markerWidth="16.23606797749979" markerHeight="10.550836550532098" viewBox="-1.0 -1.3763819204711736 16.23606797749979 10.550836550532098" refX="-1.0" refY="3.8990363547948754"><path id="ProcessOnPath1095" d="M12.0 3.8990363547948754L0.0 7.798072709589751V0.0Z" stroke="#007fff" stroke-width="2.0" fill="#007fff" transform="matrix(1.0,0.0,0.0,1.0,0.0,0.0)"/></marker><marker id="ProcessOnMarker1101" markerUnits="userSpaceOnUse" orient="auto" markerWidth="16.23606797749979" markerHeight="10.550836550532098" viewBox="-1.0 -1.3763819204711736 16.23606797749979 10.550836550532098" refX="-1.0" refY="3.8990363547948754"><path id="ProcessOnPath1102" d="M12.0 3.8990363547948754L0.0 7.798072709589751V0.0Z" stroke="#454545" stroke-width="2.0" fill="#454545" transform="matrix(1.0,0.0,0.0,1.0,0.0,0.0)"/></marker><marker id="ProcessOnMarker1112" markerUnits="userSpaceOnUse" orient="auto" markerWidth="16.23606797749979" markerHeight="10.550836550532098" viewBox="-1.0 -1.3763819204711736 16.23606797749979 10.550836550532098" refX="-1.0" refY="3.8990363547948754"><path id="ProcessOnPath1113" d="M12.0 3.8990363547948754L0.0 7.798072709589751V0.0Z" stroke="#00cc00" stroke-width="2.0" fill="#00cc00" transform="matrix(1.0,0.0,0.0,1.0,0.0,0.0)"/></marker><marker id="ProcessOnMarker1123" markerUnits="userSpaceOnUse" orient="auto" markerWidth="16.23606797749979" markerHeight="10.550836550532098" viewBox="-1.0 -1.3763819204711736 16.23606797749979 10.550836550532098" refX="-1.0" refY="3.8990363547948754"><path id="ProcessOnPath1124" d="M12.0 3.8990363547948754L0.0 7.798072709589751V0.0Z" stroke="#ff0000" stroke-width="2.0" fill="#ff0000" transform="matrix(1.0,0.0,0.0,1.0,0.0,0.0)"/></marker><marker id="ProcessOnMarker1134" markerUnits="userSpaceOnUse" orient="auto" markerWidth="16.23606797749979" markerHeight="10.550836550532098" viewBox="-1.0 -1.3763819204711736 16.23606797749979 10.550836550532098" refX="-1.0" refY="3.8990363547948754"><path id="ProcessOnPath1135" d="M12.0 3.8990363547948754L0.0 7.798072709589751V0.0Z" stroke="#00cc00" stroke-width="2.0" fill="#00cc00" transform="matrix(1.0,0.0,0.0,1.0,0.0,0.0)"/></marker><marker id="ProcessOnMarker1145" markerUnits="userSpaceOnUse" orient="auto" markerWidth="16.23606797749979" markerHeight="10.550836550532098" viewBox="-1.0 -1.3763819204711736 16.23606797749979 10.550836550532098" refX="-1.0" refY="3.8990363547948754"><path id="ProcessOnPath1146" d="M12.0 3.8990363547948754L0.0 7.798072709589751V0.0Z" stroke="#00cc00" stroke-width="2.0" fill="#00cc00" transform="matrix(1.0,0.0,0.0,1.0,0.0,0.0)"/></marker><marker id="ProcessOnMarker1152" markerUnits="userSpaceOnUse" orient="auto" markerWidth="16.23606797749979" markerHeight="10.550836550532098" viewBox="-1.0 -1.3763819204711736 16.23606797749979 10.550836550532098" refX="-1.0" refY="3.8990363547948754"><path id="ProcessOnPath1153" d="M12.0 3.8990363547948754L0.0 7.798072709589751V0.0Z" stroke="#323232" stroke-width="2.0" fill="#323232" transform="matrix(1.0,0.0,0.0,1.0,0.0,0.0)"/></marker><marker id="ProcessOnMarker1163" markerUnits="userSpaceOnUse" orient="auto" markerWidth="16.23606797749979" markerHeight="10.550836550532098" viewBox="-1.0 -1.3763819204711736 16.23606797749979 10.550836550532098" refX="-1.0" refY="3.8990363547948754"><path id="ProcessOnPath1164" d="M12.0 3.8990363547948754L0.0 7.798072709589751V0.0Z" stroke="#00cc00" stroke-width="2.0" fill="#00cc00" transform="matrix(1.0,0.0,0.0,1.0,0.0,0.0)"/></marker><marker id="ProcessOnMarker1174" markerUnits="userSpaceOnUse" orient="auto" markerWidth="16.23606797749979" markerHeight="10.550836550532098" viewBox="-1.0 -1.3763819204711736 16.23606797749979 10.550836550532098" refX="-1.0" refY="3.8990363547948754"><path id="ProcessOnPath1175" d="M12.0 3.8990363547948754L0.0 7.798072709589751V0.0Z" stroke="#00cc00" stroke-width="2.0" fill="#00cc00" transform="matrix(1.0,0.0,0.0,1.0,0.0,0.0)"/></marker><marker id="ProcessOnMarker1181" markerUnits="userSpaceOnUse" orient="auto" markerWidth="16.23606797749979" markerHeight="10.550836550532098" viewBox="-1.0 -1.3763819204711736 16.23606797749979 10.550836550532098" refX="-1.0" refY="3.8990363547948754"><path id="ProcessOnPath1182" d="M12.0 3.8990363547948754L0.0 7.798072709589751V0.0Z" stroke="#ff0000" stroke-width="2.0" fill="#ff0000" transform="matrix(1.0,0.0,0.0,1.0,0.0,0.0)"/></marker><marker id="ProcessOnMarker1188" markerUnits="userSpaceOnUse" orient="auto" markerWidth="16.23606797749979" markerHeight="10.550836550532098" viewBox="-1.0 -1.3763819204711736 16.23606797749979 10.550836550532098" refX="-1.0" refY="3.8990363547948754"><path id="ProcessOnPath1189" d="M12.0 3.8990363547948754L0.0 7.798072709589751V0.0Z" stroke="#ff0000" stroke-width="2.0" fill="#ff0000" transform="matrix(1.0,0.0,0.0,1.0,0.0,0.0)"/></marker><marker id="ProcessOnMarker1199" markerUnits="userSpaceOnUse" orient="auto" markerWidth="16.23606797749979" markerHeight="10.550836550532098" viewBox="-1.0 -1.3763819204711736 16.23606797749979 10.550836550532098" refX="-1.0" refY="3.8990363547948754"><path id="ProcessOnPath1200" d="M12.0 3.8990363547948754L0.0 7.798072709589751V0.0Z" stroke="#323232" stroke-width="2.0" fill="#323232" transform="matrix(1.0,0.0,0.0,1.0,0.0,0.0)"/></marker><marker id="ProcessOnMarker1210" markerUnits="userSpaceOnUse" orient="auto" markerWidth="16.23606797749979" markerHeight="10.550836550532098" viewBox="-1.0 -1.3763819204711736 16.23606797749979 10.550836550532098" refX="-1.0" refY="3.8990363547948754"><path id="ProcessOnPath1211" d="M12.0 3.8990363547948754L0.0 7.798072709589751V0.0Z" stroke="#00cc00" stroke-width="2.0" fill="#00cc00" transform="matrix(1.0,0.0,0.0,1.0,0.0,0.0)"/></marker></defs><g id="ProcessOnG1002"><path id="ProcessOnPath1003" d="M76.0 50.0H1185.0000000000007V748.0H76.0V50.0Z" fill="none"/><g id="ProcessOnG1004"><g id="ProcessOnG1005" transform="matrix(1.0,0.0,0.0,1.0,96.0,70.0)" opacity="1.0"><path id="ProcessOnPath1006" d="M0.0 0.0L1069.0000000000007 0.0L1069.0000000000007 658.0L0.0 658.0Z" stroke="#323232" stroke-width="2.0" stroke-dasharray="none" fill="none"/><path id="ProcessOnPath1007" d="M0.0 0.0L1069.0000000000007 0.0L1069.0000000000007 40.0L0.0 40.0Z" stroke="#323232" stroke-width="2.0" stroke-dasharray="none" fill="#ccffcc"/><g id="ProcessOnG1008" transform="matrix(1.0,0.0,0.0,1.0,10.0,10.0)"><text id="ProcessOnText1009" fill="#323232" font-weight="normal" font-style="normal" text-decoration="blink" font-family="Arial,宋体" text-anchor="middle" font-size="16" x="524.5000000000003" y="16.4">Android点击事件分发及消费</text></g></g><g id="ProcessOnG1010" transform="matrix(1.0,0.0,0.0,1.0,96.0,110.0)" opacity="1.0"><path id="ProcessOnPath1011" d="M0.0 0.0L255.0 0.0L255.0 618.0L0.0 618.0Z" stroke="#323232" stroke-width="2.0" stroke-dasharray="none" fill="none"/><path id="ProcessOnPath1012" d="M0.0 0.0L255.0 0.0L255.0 30.0L0.0 30.0Z" stroke="#323232" stroke-width="2.0" stroke-dasharray="none" fill="#ffcccc"/><g id="ProcessOnG1013" transform="matrix(1.0,0.0,0.0,1.0,10.0,6.875)"><text id="ProcessOnText1014" fill="#323232" font-weight="normal" font-style="normal" text-decoration="blink" font-family="Arial,宋体" text-anchor="middle" font-size="13" x="117.5" y="13.325">Activity</text></g></g><g id="ProcessOnG1015" transform="matrix(1.0,0.0,0.0,1.0,351.0,110.0)" opacity="1.0"><path id="ProcessOnPath1016" d="M0.0 0.0L501.0 0.0L501.0 618.0L0.0 618.0Z" stroke="#323232" stroke-width="2.0" stroke-dasharray="none" fill="none"/><path id="ProcessOnPath1017" d="M0.0 0.0L501.0 0.0L501.0 30.0L0.0 30.0Z" stroke="#323232" stroke-width="2.0" stroke-dasharray="none" fill="#ffffcc"/><g id="ProcessOnG1018" transform="matrix(1.0,0.0,0.0,1.0,10.0,6.875)"><text id="ProcessOnText1019" fill="#323232" font-weight="normal" font-style="normal" text-decoration="blink" font-family="Arial,宋体" text-anchor="middle" font-size="13" x="240.5" y="13.325">ViewGroup</text></g></g><g id="ProcessOnG1020" transform="matrix(1.0,0.0,0.0,1.0,852.0,110.0)" opacity="1.0"><path id="ProcessOnPath1021" d="M0.0 0.0L313.0 0.0L313.0 618.0L0.0 618.0Z" stroke="#323232" stroke-width="2.0" stroke-dasharray="none" fill="none"/><path id="ProcessOnPath1022" d="M0.0 0.0L313.0 0.0L313.0 30.0L0.0 30.0Z" stroke="#323232" stroke-width="2.0" stroke-dasharray="none" fill="#e5ccff"/><g id="ProcessOnG1023" transform="matrix(1.0,0.0,0.0,1.0,10.0,6.875)"><text id="ProcessOnText1024" fill="#323232" font-weight="normal" font-style="normal" text-decoration="blink" font-family="Arial,宋体" text-anchor="middle" font-size="13" x="146.5" y="13.325">View</text></g></g><g id="ProcessOnG1025" transform="matrix(1.0,0.0,0.0,1.0,626.654322853688,284.774358974359)" opacity="1.0"><path id="ProcessOnPath1026" d="M0.0 31.61025641025641L95.09975816203143 0.0L190.19951632406287 31.61025641025641L95.09975816203143 63.22051282051282L0.0 31.61025641025641Z" stroke="#323232" stroke-width="2.0" stroke-dasharray="none" fill="#ffffcc"/><g id="ProcessOnG1027" transform="matrix(1.0,0.0,0.0,1.0,10.0,23.48525641025641)"><text id="ProcessOnText1028" fill="#323232" font-weight="bold" font-style="normal" text-decoration="blink" font-family="Arial,宋体" text-anchor="middle" font-size="13" x="85.09975816203143" y="13.325">onInterceptTouchEvent</text></g></g><g id="ProcessOnG1029" transform="matrix(1.0,0.0,0.0,1.0,151.375,282.0)" opacity="1.0"><path id="ProcessOnPath1030" d="M0.0 35.384615384615394L80.0710399032648 0.0L160.1420798065296 35.384615384615394L80.0710399032648 70.76923076923079L0.0 35.384615384615394Z" stroke="#323232" stroke-width="2.0" stroke-dasharray="none" fill="#ffcccc"/><g id="ProcessOnG1031" transform="matrix(1.0,0.0,0.0,1.0,10.0,27.259615384615394)"><text id="ProcessOnText1032" fill="#454545" font-weight="bold" font-style="normal" text-decoration="blink" font-family="Arial,宋体" text-anchor="middle" font-size="13" x="70.0710399032648" y="13.325">dispatchTouchEvent</text></g></g><g id="ProcessOnG1033" transform="matrix(1.0,0.0,0.0,1.0,392.9289600967352,282.0)" opacity="1.0"><path id="ProcessOnPath1034" d="M0.0 35.384615384615394L80.0710399032648 0.0L160.1420798065296 35.384615384615394L80.0710399032648 70.76923076923079L0.0 35.384615384615394Z" stroke="#323232" stroke-width="2.0" stroke-dasharray="none" fill="#ffffcc"/><g id="ProcessOnG1035" transform="matrix(1.0,0.0,0.0,1.0,10.0,27.259615384615394)"><text id="ProcessOnText1036" fill="#323232" font-weight="bold" font-style="normal" text-decoration="blink" font-family="Arial,宋体" text-anchor="middle" font-size="13" x="70.0710399032648" y="13.325">dispatchTouchEvent</text></g></g><g id="ProcessOnG1037" transform="matrix(1.0,0.0,0.0,1.0,917.6324062877871,282.0)" opacity="1.0"><path id="ProcessOnPath1038" d="M0.0 35.384615384615394L80.0710399032648 0.0L160.1420798065296 35.384615384615394L80.0710399032648 70.76923076923079L0.0 35.384615384615394Z" stroke="#323232" stroke-width="2.0" stroke-dasharray="none" fill="#e5ccff"/><g id="ProcessOnG1039" transform="matrix(1.0,0.0,0.0,1.0,10.0,27.259615384615394)"><text id="ProcessOnText1040" fill="#323232" font-weight="normal" font-style="normal" text-decoration="blink" font-family="Arial,宋体" text-anchor="middle" font-size="13" x="70.0710399032648" y="13.325">dispatchTouchEvent</text></g></g><g id="ProcessOnG1041"><path id="ProcessOnPath1042" d="M311.51707980652964 317.38461538461536L352.2230199516324 317.38461538461536L352.2230199516324 317.38461538461536L377.6928921192354 317.38461538461536" stroke="#007fff" stroke-width="2.0" stroke-dasharray="none" fill="none" marker-end="url(#ProcessOnMarker1043)"/><g id="ProcessOnG1045" transform="matrix(1.0,0.0,0.0,1.0,344.60498596288255,309.25961538461536)"><path id="ProcessOnPath1046" d="M0 0H35.0V16.25H0Z" fill="#fff" transform="matrix(1.0,0.0,0.0,1.0,-17.5,0.0)"/><text id="ProcessOnText1047" fill="#0066cc" font-weight="normal" font-style="normal" text-decoration="blink" font-family="Arial,宋体" text-anchor="middle" font-size="13" x="0.0" y="13.325">super</text></g></g><g id="ProcessOnG1048" transform="matrix(1.0,0.0,0.0,1.0,185.8671402660218,203.85641025641024)" opacity="1.0"><path id="ProcessOnPath1049" d="M6.762393162393162 0.0L84.39540611209293 0.0C93.41193032861715 0.0 93.41193032861715 20.287179487179486 84.39540611209293 20.287179487179486L6.762393162393162 20.287179487179486C-2.254131054131054 20.287179487179486 -2.254131054131054 0.0 6.762393162393162 0.0Z" stroke="#323232" stroke-width="2.0" stroke-dasharray="none" fill="#ffcccc"/><g id="ProcessOnG1050" transform="matrix(1.0,0.0,0.0,1.0,10.0,2.018589743589743)"><text id="ProcessOnText1051" fill="#323232" font-weight="bold" font-style="normal" text-decoration="blink" font-family="Arial,宋体" text-anchor="middle" font-size="13" x="35.57889963724305" y="13.325">消费事件</text></g></g><g id="ProcessOnG1052"><path id="ProcessOnPath1053" d="M553.0710399032648 317.3846153846154L589.8626813784764 317.3846153846154L589.8626813784764 316.3846153846154L611.4182548761881 316.3846153846154" stroke="#007fff" stroke-width="2.0" stroke-dasharray="none" fill="none" marker-end="url(#ProcessOnMarker1054)"/><g id="ProcessOnG1056" transform="matrix(1.0,0.0,0.0,1.0,582.7446473897264,309.2596153846154)"><path id="ProcessOnPath1057" d="M0 0H35.0V16.25H0Z" fill="#fff" transform="matrix(1.0,0.0,0.0,1.0,-17.5,0.0)"/><text id="ProcessOnText1058" fill="#007fff" font-weight="normal" font-style="normal" text-decoration="blink" font-family="Arial,宋体" text-anchor="middle" font-size="13" x="0.0" y="13.325">super</text></g></g><g id="ProcessOnG1059"><path id="ProcessOnPath1060" d="M816.853839177751 316.3846153846154L867.243122732769 316.3846153846154L867.243122732769 317.38461538461536L902.3963383102873 317.38461538461536" stroke="#5c5c5c" stroke-width="2.0" stroke-dasharray="none" fill="none" marker-end="url(#ProcessOnMarker1061)"/><g id="ProcessOnG1063" transform="matrix(1.0,0.0,0.0,1.0,860.1250887440191,308.2596153846154)"><path id="ProcessOnPath1064" d="M0 0H72.0V16.25H0Z" fill="#fff" transform="matrix(1.0,0.0,0.0,1.0,-36.0,0.0)"/><text id="ProcessOnText1065" fill="#454545" font-weight="normal" font-style="normal" text-decoration="blink" font-family="Arial,宋体" text-anchor="middle" font-size="13" x="0.0" y="13.325">super/false</text></g></g><g id="ProcessOnG1066" transform="matrix(1.0,0.0,0.0,1.0,157.90522974607046,585.8)" opacity="1.0"><path id="ProcessOnPath1067" d="M0.0 23.117948717948718L75.02040507859734 0.0L150.04081015719467 23.117948717948718L75.02040507859734 46.235897435897435L0.0 23.117948717948718Z" stroke="#323232" stroke-width="2.0" stroke-dasharray="none" fill="#ffcccc"/><g id="ProcessOnG1068" transform="matrix(1.0,0.0,0.0,1.0,10.0,14.992948717948718)"><text id="ProcessOnText1069" fill="#454545" font-weight="normal" font-style="normal" text-decoration="blink" font-family="Arial,宋体" text-anchor="middle" font-size="13" x="65.02040507859734" y="13.325">onTouch</text></g></g><g id="ProcessOnG1070"><path id="ProcessOnPath1071" d="M1077.7744860943167 317.3846153846154L1107.7744860943167 317.3846153846154L1107.7744860943167 180.28461538461534L127.90522974607046 180.28461538461534L127.90522974607046 608.9179487179487L142.66916176857066 608.9179487179487" stroke="#007fff" stroke-width="2.0" stroke-dasharray="none" fill="none" marker-end="url(#ProcessOnMarker1072)"/><g id="ProcessOnG1074" transform="matrix(1.0,0.0,0.0,1.0,479.69122524227686,172.15961538461534)"><path id="ProcessOnPath1075" d="M0 0H35.0V16.25H0Z" fill="#fff" transform="matrix(1.0,0.0,0.0,1.0,-17.5,0.0)"/><text id="ProcessOnText1076" fill="#007fff" font-weight="normal" font-style="normal" text-decoration="blink" font-family="Arial,宋体" text-anchor="middle" font-size="13" x="0.0" y="13.325">super</text></g></g><g id="ProcessOnG1077" transform="matrix(1.0,0.0,0.0,1.0,923.0539600967354,436.32820512820507)" opacity="1.0"><path id="ProcessOnPath1078" d="M0.0 23.117948717948718L75.02040507859734 0.0L150.04081015719467 23.117948717948718L75.02040507859734 46.235897435897435L0.0 23.117948717948718Z" stroke="#323232" stroke-width="2.0" stroke-dasharray="none" fill="#e5ccff"/><g id="ProcessOnG1079" transform="matrix(1.0,0.0,0.0,1.0,10.0,14.992948717948718)"><text id="ProcessOnText1080" fill="#323232" font-weight="normal" font-style="normal" text-decoration="blink" font-family="Arial,宋体" text-anchor="middle" font-size="13" x="65.02040507859734" y="13.325">onTouchEvent</text></g></g><g id="ProcessOnG1081"><path id="ProcessOnPath1082" d="M307.94603990326516 608.9179487179487L998.0743651753328 608.9179487179487L998.0743651753328 497.80017054160226" stroke="#ff0000" stroke-width="2.0" stroke-dasharray="none" fill="none" marker-end="url(#ProcessOnMarker1083)"/><g id="ProcessOnG1085" transform="matrix(1.0,0.0,0.0,1.0,708.5690916274722,600.7929487179487)"><path id="ProcessOnPath1086" d="M0 0H30.0V16.25H0Z" fill="#fff" transform="matrix(1.0,0.0,0.0,1.0,-15.0,0.0)"/><text id="ProcessOnText1087" fill="#ff0000" font-weight="normal" font-style="normal" text-decoration="blink" font-family="Arial,宋体" text-anchor="middle" font-size="13" x="0.0" y="13.325">false</text></g></g><g id="ProcessOnG1088" transform="matrix(1.0,0.0,0.0,1.0,183.651148730351,667.0)" opacity="1.0"><path id="ProcessOnPath1089" d="M10.393162393162394 0.0L88.15580979547117 0.0C102.01335965302104 0.0 102.01335965302104 31.179487179487182 88.15580979547117 31.179487179487182L10.393162393162394 31.179487179487182C-3.4643874643874644 31.179487179487182 -3.4643874643874644 0.0 10.393162393162394 0.0Z" stroke="#323232" stroke-width="2.0" stroke-dasharray="none" fill="#ffcccc"/><g id="ProcessOnG1090" transform="matrix(1.0,0.0,0.0,1.0,10.0,7.464743589743591)"><text id="ProcessOnText1091" fill="#454545" font-weight="normal" font-style="normal" text-decoration="blink" font-family="Arial,宋体" text-anchor="middle" font-size="13" x="39.274486094316785" y="13.325">onClick</text></g></g><g id="ProcessOnG1092"><path id="ProcessOnPath1093" d="M1073.0947702539302 459.4461538461538L1103.0947702539302 459.4461538461538L1103.0947702539302 682.5897435897435L297.43618889648434 682.5897435897435" stroke="#007fff" stroke-width="2.0" stroke-dasharray="none" fill="none" marker-end="url(#ProcessOnMarker1094)"/><g id="ProcessOnG1096" transform="matrix(1.0,0.0,0.0,1.0,826.8372744470021,674.4647435897435)"><path id="ProcessOnPath1097" d="M0 0H63.0V16.25H0Z" fill="#fff" transform="matrix(1.0,0.0,0.0,1.0,-31.5,0.0)"/><text id="ProcessOnText1098" fill="#007fff" font-weight="normal" font-style="normal" text-decoration="blink" font-family="Arial,宋体" text-anchor="middle" font-size="13" x="0.0" y="13.325">super【1】</text></g></g><g id="ProcessOnG1099"><path id="ProcessOnPath1100" d="M231.44603990326482 282.0L231.44603990326482 253.07179487179485L231.44603990326488 253.07179487179485L231.44603990326488 239.37965772108953" stroke="#454545" stroke-width="2.0" stroke-dasharray="none" fill="none" marker-end="url(#ProcessOnMarker1101)"/><g id="ProcessOnG1103" transform="matrix(1.0,0.0,0.0,1.0,231.44603990326482,252.5648288605447)"><path id="ProcessOnPath1104" d="M0 0H62.0V16.25H0Z" fill="#fff" transform="matrix(1.0,0.0,0.0,1.0,-31.0,0.0)"/><text id="ProcessOnText1105" fill="#323232" font-weight="normal" font-style="normal" text-decoration="blink" font-family="Arial,宋体" text-anchor="middle" font-size="13" x="0.0" y="13.325">true/false</text></g></g><g id="ProcessOnG1106" transform="matrix(1.0,0.0,0.0,1.0,427.4211003627569,203.85641025641024)" opacity="1.0"><path id="ProcessOnPath1107" d="M6.762393162393162 0.0L84.39540611209293 0.0C93.41193032861715 0.0 93.41193032861715 20.287179487179486 84.39540611209293 20.287179487179486L6.762393162393162 20.287179487179486C-2.254131054131054 20.287179487179486 -2.254131054131054 0.0 6.762393162393162 0.0Z" stroke="#323232" stroke-width="2.0" stroke-dasharray="none" fill="#ffffcc"/><g id="ProcessOnG1108" transform="matrix(1.0,0.0,0.0,1.0,10.0,2.018589743589743)"><text id="ProcessOnText1109" fill="#323232" font-weight="bold" font-style="normal" text-decoration="blink" font-family="Arial,宋体" text-anchor="middle" font-size="13" x="35.57889963724305" y="13.325">消费事件</text></g></g><g id="ProcessOnG1110"><path id="ProcessOnPath1111" d="M473.0 282.0L473.0 253.07179487179485L472.9999999999999 253.07179487179485L472.9999999999999 239.37965772108953" stroke="#00cc00" stroke-width="2.0" stroke-dasharray="none" fill="none" marker-end="url(#ProcessOnMarker1112)"/><g id="ProcessOnG1114" transform="matrix(1.0,0.0,0.0,1.0,473.0,252.5648288605447)"><path id="ProcessOnPath1115" d="M0 0H25.0V16.25H0Z" fill="#fff" transform="matrix(1.0,0.0,0.0,1.0,-12.5,0.0)"/><text id="ProcessOnText1116" fill="#00cc00" font-weight="normal" font-style="normal" text-decoration="blink" font-family="Arial,宋体" text-anchor="middle" font-size="13" x="0.0" y="13.325">true</text></g></g><g id="ProcessOnG1117" transform="matrix(1.0,0.0,0.0,1.0,157.90522974607046,437.32820512820507)" opacity="1.0"><path id="ProcessOnPath1118" d="M0.0 23.117948717948718L75.02040507859734 0.0L150.04081015719467 23.117948717948718L75.02040507859734 46.235897435897435L0.0 23.117948717948718Z" stroke="#323232" stroke-width="2.0" stroke-dasharray="none" fill="#ffcccc"/><g id="ProcessOnG1119" transform="matrix(1.0,0.0,0.0,1.0,10.0,14.992948717948718)"><text id="ProcessOnText1120" fill="#323232" font-weight="normal" font-style="normal" text-decoration="blink" font-family="Arial,宋体" text-anchor="middle" font-size="13" x="65.02040507859734" y="13.325">onTouchEvent</text></g></g><g id="ProcessOnG1121"><path id="ProcessOnPath1122" d="M473.0 352.7692307692308L320.7067631173157 452.1213889564175" stroke="#ff0000" stroke-width="2.0" stroke-dasharray="none" fill="none" marker-end="url(#ProcessOnMarker1123)"/><g id="ProcessOnG1125" transform="matrix(1.0,0.0,0.0,1.0,396.8533815586578,394.32030986282416)"><path id="ProcessOnPath1126" d="M0 0H30.0V16.25H0Z" fill="#fff" transform="matrix(1.0,0.0,0.0,1.0,-15.0,0.0)"/><text id="ProcessOnText1127" fill="#ff0000" font-weight="normal" font-style="normal" text-decoration="blink" font-family="Arial,宋体" text-anchor="middle" font-size="13" x="0.0" y="13.325">false</text></g></g><g id="ProcessOnG1128" transform="matrix(1.0,0.0,0.0,1.0,647.1045949214028,436.32820512820507)" opacity="1.0"><path id="ProcessOnPath1129" d="M0.0 23.117948717948718L75.02040507859734 0.0L150.04081015719467 23.117948717948718L75.02040507859734 46.235897435897435L0.0 23.117948717948718Z" stroke="#323232" stroke-width="2.0" stroke-dasharray="none" fill="#ffffcc"/><g id="ProcessOnG1130" transform="matrix(1.0,0.0,0.0,1.0,10.0,14.992948717948718)"><text id="ProcessOnText1131" fill="#323232" font-weight="normal" font-style="normal" text-decoration="blink" font-family="Arial,宋体" text-anchor="middle" font-size="13" x="65.02040507859734" y="13.325">onTouchEvent</text></g></g><g id="ProcessOnG1132"><path id="ProcessOnPath1133" d="M721.7540810157194 347.99487179487176L721.7540810157194 392.1615384615384L722.1250000000002 392.1615384615384L722.1250000000002 421.0921371507053" stroke="#00cc00" stroke-width="2.0" stroke-dasharray="none" fill="none" marker-end="url(#ProcessOnMarker1134)"/><g id="ProcessOnG1136" transform="matrix(1.0,0.0,0.0,1.0,721.7540810157194,376.60396396492894)"><path id="ProcessOnPath1137" d="M0 0H25.0V16.25H0Z" fill="#fff" transform="matrix(1.0,0.0,0.0,1.0,-12.5,0.0)"/><text id="ProcessOnText1138" fill="#00cc00" font-weight="normal" font-style="normal" text-decoration="blink" font-family="Arial,宋体" text-anchor="middle" font-size="13" x="0.0" y="13.325">true</text></g></g><g id="ProcessOnG1139" transform="matrix(1.0,0.0,0.0,1.0,676.5461003627572,547.3846153846155)" opacity="1.0"><path id="ProcessOnPath1140" d="M6.762393162393162 0.0L84.39540611209293 0.0C93.41193032861715 0.0 93.41193032861715 20.287179487179486 84.39540611209293 20.287179487179486L6.762393162393162 20.287179487179486C-2.254131054131054 20.287179487179486 -2.254131054131054 0.0 6.762393162393162 0.0Z" stroke="#323232" stroke-width="2.0" stroke-dasharray="none" fill="#ffffcc"/><g id="ProcessOnG1141" transform="matrix(1.0,0.0,0.0,1.0,10.0,2.018589743589743)"><text id="ProcessOnText1142" fill="#323232" font-weight="normal" font-style="normal" text-decoration="blink" font-family="Arial,宋体" text-anchor="middle" font-size="13" x="35.57889963724305" y="13.325">消费事件</text></g></g><g id="ProcessOnG1143"><path id="ProcessOnPath1144" d="M722.1250000000002 482.5641025641025L722.1250000000002 514.974358974359L722.1250000000002 514.974358974359L722.1250000000002 532.1485474071156" stroke="#00cc00" stroke-width="2.0" stroke-dasharray="none" fill="none" marker-end="url(#ProcessOnMarker1145)"/><g id="ProcessOnG1147" transform="matrix(1.0,0.0,0.0,1.0,722.1250000000002,499.23132498560904)"><path id="ProcessOnPath1148" d="M0 0H53.0V16.25H0Z" fill="#fff" transform="matrix(1.0,0.0,0.0,1.0,-26.5,0.0)"/><text id="ProcessOnText1149" fill="#00cc00" font-weight="normal" font-style="normal" text-decoration="blink" font-family="Arial,宋体" text-anchor="middle" font-size="13" x="0.0" y="13.325">true【6】</text></g></g><g id="ProcessOnG1150"><path id="ProcessOnPath1151" d="M647.1045949214028 459.4461538461539L477.525317412334 459.4461538461539L477.525317412334 460.4461538461538L323.1821078807649 460.4461538461538" stroke="#323232" stroke-width="2.0" stroke-dasharray="none" fill="none" marker-end="url(#ProcessOnMarker1152)"/><g id="ProcessOnG1154" transform="matrix(1.0,0.0,0.0,1.0,484.6433514010839,451.3211538461539)"><path id="ProcessOnPath1155" d="M0 0H100.0V16.25H0Z" fill="#fff" transform="matrix(1.0,0.0,0.0,1.0,-50.0,0.0)"/><text id="ProcessOnText1156" fill="#323232" font-weight="normal" font-style="normal" text-decoration="blink" font-family="Arial,宋体" text-anchor="middle" font-size="13" x="0.0" y="13.325">super/false【5】</text></g></g><g id="ProcessOnG1157" transform="matrix(1.0,0.0,0.0,1.0,952.1245465538091,203.85641025641024)" opacity="1.0"><path id="ProcessOnPath1158" d="M6.762393162393162 0.0L84.39540611209293 0.0C93.41193032861715 0.0 93.41193032861715 20.287179487179486 84.39540611209293 20.287179487179486L6.762393162393162 20.287179487179486C-2.254131054131054 20.287179487179486 -2.254131054131054 0.0 6.762393162393162 0.0Z" stroke="#323232" stroke-width="2.0" stroke-dasharray="none" fill="#e5ccff"/><g id="ProcessOnG1159" transform="matrix(1.0,0.0,0.0,1.0,10.0,2.018589743589743)"><text id="ProcessOnText1160" fill="#323232" font-weight="normal" font-style="normal" text-decoration="blink" font-family="Arial,宋体" text-anchor="middle" font-size="13" x="35.57889963724305" y="13.325">消费事件</text></g></g><g id="ProcessOnG1161"><path id="ProcessOnPath1162" d="M997.703446191052 282.0L997.703446191052 253.07179487179485L997.7034461910521 253.07179487179485L997.7034461910521 239.37965772108953" stroke="#00cc00" stroke-width="2.0" stroke-dasharray="none" fill="none" marker-end="url(#ProcessOnMarker1163)"/><g id="ProcessOnG1165" transform="matrix(1.0,0.0,0.0,1.0,997.703446191052,252.5648288605447)"><path id="ProcessOnPath1166" d="M0 0H53.000000000000114V16.25H0Z" fill="#fff" transform="matrix(1.0,0.0,0.0,1.0,-26.500000000000057,0.0)"/><text id="ProcessOnText1167" fill="#00cc00" font-weight="normal" font-style="normal" text-decoration="blink" font-family="Arial,宋体" text-anchor="middle" font-size="13" x="0.0" y="13.325">true【7】</text></g></g><g id="ProcessOnG1168" transform="matrix(1.0,0.0,0.0,1.0,187.34673518742474,506.8564102564103)" opacity="1.0"><path id="ProcessOnPath1169" d="M6.762393162393162 0.0L84.39540611209293 0.0C93.41193032861715 0.0 93.41193032861715 20.287179487179486 84.39540611209293 20.287179487179486L6.762393162393162 20.287179487179486C-2.254131054131054 20.287179487179486 -2.254131054131054 0.0 6.762393162393162 0.0Z" stroke="#323232" stroke-width="2.0" stroke-dasharray="none" fill="#ffcccc"/><g id="ProcessOnG1170" transform="matrix(1.0,0.0,0.0,1.0,10.0,2.018589743589743)"><text id="ProcessOnText1171" fill="#323232" font-weight="bold" font-style="normal" text-decoration="blink" font-family="Arial,宋体" text-anchor="middle" font-size="13" x="35.57889963724305" y="13.325">消费事件</text></g></g><g id="ProcessOnG1172"><path id="ProcessOnPath1173" d="M232.92563482466778 585.8L232.92563482466778 556.4717948717948L232.92563482466778 556.4717948717948L232.92563482466778 542.3796577210896" stroke="#00cc00" stroke-width="2.0" stroke-dasharray="none" fill="none" marker-end="url(#ProcessOnMarker1174)"/><g id="ProcessOnG1176" transform="matrix(1.0,0.0,0.0,1.0,232.92563482466778,555.9648288605448)"><path id="ProcessOnPath1177" d="M0 0H25.0V16.25H0Z" fill="#fff" transform="matrix(1.0,0.0,0.0,1.0,-12.5,0.0)"/><text id="ProcessOnText1178" fill="#323232" font-weight="normal" font-style="normal" text-decoration="blink" font-family="Arial,宋体" text-anchor="middle" font-size="13" x="0.0" y="13.325">true</text></g></g><g id="ProcessOnG1179"><path id="ProcessOnPath1180" d="M923.0539600967354 459.4461538461538L860.0996825876664 459.4461538461538L860.0996825876664 459.4461538461538L812.3814730560974 459.4461538461538" stroke="#ff0000" stroke-width="2.0" stroke-dasharray="none" fill="none" marker-end="url(#ProcessOnMarker1181)"/><g id="ProcessOnG1183" transform="matrix(1.0,0.0,0.0,1.0,867.7177165764165,451.3211538461538)"><path id="ProcessOnPath1184" d="M0 0H30.0V16.25H0Z" fill="#fff" transform="matrix(1.0,0.0,0.0,1.0,-15.0,0.0)"/><text id="ProcessOnText1185" fill="#ff0000" font-weight="normal" font-style="normal" text-decoration="blink" font-family="Arial,宋体" text-anchor="middle" font-size="13" x="0.0" y="13.325">false</text></g></g><g id="ProcessOnG1186"><path id="ProcessOnPath1187" d="M997.703446191052 352.7692307692308L810.5969890699432 452.29124954639076" stroke="#ff0000" stroke-width="2.0" stroke-dasharray="none" fill="none" marker-end="url(#ProcessOnMarker1188)"/><g id="ProcessOnG1190" transform="matrix(1.0,0.0,0.0,1.0,904.1502176304975,394.4052401578108)"><path id="ProcessOnPath1191" d="M0 0H30.0V16.25H0Z" fill="#fff" transform="matrix(1.0,0.0,0.0,1.0,-15.0,0.0)"/><text id="ProcessOnText1192" fill="#ff0000" font-weight="normal" font-style="normal" text-decoration="blink" font-family="Arial,宋体" text-anchor="middle" font-size="13" x="0.0" y="13.325">false</text></g></g><g id="ProcessOnG1193" transform="matrix(1.0,0.0,0.0,1.0,187.34673518742474,363.85641025641024)" opacity="1.0"><path id="ProcessOnPath1194" d="M6.762393162393162 0.0L84.39540611209293 0.0C93.41193032861715 0.0 93.41193032861715 20.287179487179486 84.39540611209293 20.287179487179486L6.762393162393162 20.287179487179486C-2.254131054131054 20.287179487179486 -2.254131054131054 0.0 6.762393162393162 0.0Z" stroke="#323232" stroke-width="2.0" stroke-dasharray="none" fill="#ffcccc"/><g id="ProcessOnG1195" transform="matrix(1.0,0.0,0.0,1.0,10.0,2.018589743589743)"><text id="ProcessOnText1196" fill="#323232" font-weight="bold" font-style="normal" text-decoration="blink" font-family="Arial,宋体" text-anchor="middle" font-size="13" x="35.57889963724305" y="13.325">消费事件</text></g></g><g id="ProcessOnG1197"><path id="ProcessOnPath1198" d="M232.92563482466778 437.32820512820507L232.92563482466778 399.3796577210895" stroke="#323232" stroke-width="2.0" stroke-dasharray="none" fill="none" marker-end="url(#ProcessOnMarker1199)"/><g id="ProcessOnG1201" transform="matrix(1.0,0.0,0.0,1.0,232.92563482466778,410.22893142464727)"><path id="ProcessOnPath1202" d="M0 0H62.0V16.25H0Z" fill="#fff" transform="matrix(1.0,0.0,0.0,1.0,-31.0,0.0)"/><text id="ProcessOnText1203" fill="#323232" font-weight="normal" font-style="normal" text-decoration="blink" font-family="Arial,宋体" text-anchor="middle" font-size="13" x="0.0" y="13.325">true/false</text></g></g><g id="ProcessOnG1204" transform="matrix(1.0,0.0,0.0,1.0,952.1245465538091,378.85641025641024)" opacity="1.0"><path id="ProcessOnPath1205" d="M6.762393162393162 0.0L84.39540611209293 0.0C93.41193032861715 0.0 93.41193032861715 20.287179487179486 84.39540611209293 20.287179487179486L6.762393162393162 20.287179487179486C-2.254131054131054 20.287179487179486 -2.254131054131054 0.0 6.762393162393162 0.0Z" stroke="#323232" stroke-width="2.0" stroke-dasharray="none" fill="#e5ccff"/><g id="ProcessOnG1206" transform="matrix(1.0,0.0,0.0,1.0,10.0,2.018589743589743)"><text id="ProcessOnText1207" fill="#323232" font-weight="normal" font-style="normal" text-decoration="blink" font-family="Arial,宋体" text-anchor="middle" font-size="13" x="35.57889963724305" y="13.325">消费事件</text></g></g><g id="ProcessOnG1208"><path id="ProcessOnPath1209" d="M998.0743651753328 436.32820512820507L997.8554194106537 414.37889976851267" stroke="#00cc00" stroke-width="2.0" stroke-dasharray="none" fill="none" marker-end="url(#ProcessOnMarker1210)"/><g id="ProcessOnG1212" transform="matrix(1.0,0.0,0.0,1.0,997.9648922929932,417.22855244835887)"><path id="ProcessOnPath1213" d="M0 0H25.0V16.25H0Z" fill="#fff" transform="matrix(1.0,0.0,0.0,1.0,-12.5,0.0)"/><text id="ProcessOnText1214" fill="#00cc00" font-weight="normal" font-style="normal" text-decoration="blink" font-family="Arial,宋体" text-anchor="middle" font-size="13" x="0.0" y="13.325">true</text></g></g><g id="ProcessOnG1215" transform="matrix(1.0,0.0,0.0,1.0,898.0000000000007,696.0)" opacity="1.0"><path id="ProcessOnPath1216" d="M0.0 0.0L267.0 0.0L267.0 32.0L0.0 32.0Z" stroke="#323232" stroke-width="0.0" stroke-dasharray="none" fill="none"/><g id="ProcessOnG1217" transform="matrix(1.0,0.0,0.0,1.0,0.0,7.875)"><text id="ProcessOnText1218" fill="#323232" font-weight="normal" font-style="normal" text-decoration="blink" font-family="Arial,宋体" text-anchor="middle" font-size="13" x="133.5" y="13.325">renyongqiang.china@hotmail.com</text></g></g></g></g></svg>